PathFileType        4      (X/Y/Z)      C:\Users\pc\Desktop\IMUTRC\Sujet_08\Sujet_08_Tpose.trc         
DataRate	CameraRate	NumFrames	NumMarkers	Units	OrigDataRate	OrigDataStartFrame	OrigNumFrames
60.0	60.0	4	64	mm	60.0	82	163
Frame#	Time	pHipOrigin			pRightASI			pLeftASI			pRightCSI			pLeftCSI			pRightIschialTub			pLeftIschialTub			pSacrum			pL5SpinalProcess			pL3SpinalProcess			pT12SpinalProcess			pIJ			pT4SpinalProcess			pT8SpinalProcess			pPX			pC7SpinalProcess			pTopOfHead			pRightAuricularis			pLeftAuricularis			pBackOfHead			pRightAcromion			pLeftAcromion			pRightArmLatEpicondyle			pRightArmMedEpicondyle			pLeftArmLatEpicondyle			pLeftArmMedEpicondyle			pRightUlnarStyloid			pRightRadialStyloid			pRightOlecranon			pLeftUlnarStyloid			pLeftRadialStyloid			pLeftOlecranon			pRightTopOfHand			pRightPinky			pRightBallHand			pLeftTopOfHand			pLeftPinky			pLeftBallHand			pRightGreaterTrochanter			pRightKneeLatEpicondyle			pRightKneeMedEpicondyle			pRightPatella			pLeftGreaterTrochanter			pLeftKneeLatEpicondyle			pLeftKneeMedEpicondyle			pLeftPatella			pRightTibialTub			pRightLatMalleolus			pRightMedMalleolus			pLeftTibialTub			pLeftLatMalleolus			pLeftMedMalleolus			pRightHeelFoot			pRightFirstMetatarsal			pRightFifthMetatarsal			pRightPivotFoot			pRightHeelCenter			pRightToe			pLeftHeelFoot			pLeftFirstMetatarsal			pLeftFifthMetatarsal			pLeftPivotFoot			pLeftHeelCenter			pLeftToe			
		X1	Y1	Z1	X2	Y2	Z2	X3	Y3	Z3	X4	Y4	Z4	X5	Y5	Z5	X6	Y6	Z6	X7	Y7	Z7	X8	Y8	Z8	X9	Y9	Z9	X10	Y10	Z10	X11	Y11	Z11	X12	Y12	Z12	X13	Y13	Z13	X14	Y14	Z14	X15	Y15	Z15	X16	Y16	Z16	X17	Y17	Z17	X18	Y18	Z18	X19	Y19	Z19	X20	Y20	Z20	X21	Y21	Z21	X22	Y22	Z22	X23	Y23	Z23	X24	Y24	Z24	X25	Y25	Z25	X26	Y26	Z26	X27	Y27	Z27	X28	Y28	Z28	X29	Y29	Z29	X30	Y30	Z30	X31	Y31	Z31	X32	Y32	Z32	X33	Y33	Z33	X34	Y34	Z34	X35	Y35	Z35	X36	Y36	Z36	X37	Y37	Z37	X38	Y38	Z38	X39	Y39	Z39	X40	Y40	Z40	X41	Y41	Z41	X42	Y42	Z42	X43	Y43	Z43	X44	Y44	Z44	X45	Y45	Z45	X46	Y46	Z46	X47	Y47	Z47	X48	Y48	Z48	X49	Y49	Z49	X50	Y50	Z50	X51	Y51	Z51	X52	Y52	Z52	X53	Y53	Z53	X54	Y54	Z54	X55	Y55	Z55	X56	Y56	Z56	X57	Y57	Z57	X58	Y58	Z58	X59	Y59	Z59	X60	Y60	Z60	X61	Y61	Z61	X62	Y62	Z62	X63	Y63	Z63	X64	Y64	Z64	
82	1.35	2471.0858761291383	911.3060500000001	-987.3932857962383	2532.60239603099	1013.58562	-857.3631075752622	2527.144640166859	1011.1619300000001	-1121.5716018754972	2484.36194915938	1075.63198	-880.2516075776715	2479.82917393902	1073.69304	-1097.869183694746	2421.6073367172203	852.8144200000002	-931.2920334370352	2419.416863885511	851.8449500000002	-1040.0731960967573	2404.6023895719377	927.6255400000001	-986.1428573338617	2433.454325259554	1018.1098300000001	-986.9902374273992	2427.449042614084	1128.7915	-986.0809056416813	2407.6111742504	1227.83948	-984.0160608445027	2503.816297972866	1463.74495	-986.1412129970314	2369.7434992194953	1410.90859	-978.7124410774856	2384.528960651335	1326.40273	-981.0686736507438	2528.8036993947794	1349.34696	-989.5988068021458	2360.9644382450047	1466.33022	-981.048008734625	2425.5834910760304	1713.38464	-979.538059971114	2397.126234263549	1622.41562	-912.6906105425932	2438.798671440719	1614.98298	-1040.412595805771	2367.9393417459437	1622.25404	-993.1250031196981	2400.5509169407424	1441.28546	-822.8904582443622	2369.8316522563746	1434.49914	-1137.2172186941514	2435.53660252792	1434.0144	-558.0796534188903	2494.319504176261	1418.01807	-567.4632788279749	2379.5048914030426	1410.74701	-1405.2037195884761	2440.271680442491	1401.37542	-1401.141044398455	2483.0787893450397	1359.0417	-320.68115670340745	2477.5948847670243	1409.2928	-308.9212216716726	2465.137662239649	1401.86016	-571.3785993064839	2333.7417412694913	1346.92327	-1636.6242866520295	2323.0865080881217	1397.17437	-1643.253650597284	2413.5309233111943	1381.5012	-1397.1179709703001	2521.080499161342	1351.60907	-125.09971211966379	2508.930910709463	1324.46378	-213.6047957438199	2501.2481638060362	1358.71855	-282.257504906408	2324.9224310174777	1321.71693	-1830.181656086631	2333.012675323206	1302.97376	-1739.0272672766537	2340.9449380941605	1343.53011	-1673.8946672157635	2468.1117583314935	885.4534	-826.1560381547016	2423.356812466015	491.20043000000004	-825.078667769788	2426.9824016364364	484.57568000000003	-901.6519044651159	2468.219480178413	485.86832000000004	-863.7736337136763	2461.594482219044	885.4534000000001	-1148.8688838259277	2429.9844049292974	489.90779000000003	-1157.4508743479241	2437.720179823725	481.66726000000006	-1081.3850638296435	2476.9923139747784	485.22200000000004	-1121.2550683611444	2477.2050732767248	451.12881000000004	-859.6433960662797	2392.95193556022	83.21323000000004	-801.0675718605638	2396.586451166057	77.71954000000005	-861.1304596635653	2484.986522283476	448.3819700000001	-1125.7392152356404	2390.95339886647	83.21323000000007	-1186.272661056329	2396.885570494822	76.75007000000006	-1126.5106485127017	2357.816711582622	1.1310500000000516	-839.6480752492964	2516.020044358786	1.454210000000052	-847.2353897514948	2502.4146780722776	-0.3231599999999526	-773.9506058238578	2530.171944025661	0.48474000000004946	-807.6947528128758	2394.383184069506	3.716320000000051	-832.8730192149584	2608.4951889714603	-0.6463199999999514	-793.2872251143283	2356.9016946950933	0.32316000000007067	-1154.1317028421818	2514.9894876038757	-0.16157999999992992	-1144.394242542613	2502.3799307004074	3.5547400000000744	-1217.935239812125	2529.6616164236	1.6157900000000724	-1183.7607285401796	2393.513386549442	3.231580000000071	-1160.2363627891573	2608.1863687241935	1.4542100000000733	-1197.3075338273084	
83	1.367	2471.0306125143798	911.3060500000001	-987.2414502625717	2532.5471324162313	1013.58562	-857.2112720415956	2526.785714881694	1011.3235100000002	-1121.5302901511463	2484.0995957931227	1075.63198	-880.0031967048955	2479.41497564217	1073.69304	-1097.67603985693	2421.7039086361283	852.8144200000002	-931.08493428861	2419.3616002707527	851.8449500000002	-1039.9213605630907	2404.4918623424205	927.6255400000001	-985.8391862665285	2433.1919624963707	1018.1098300000001	-986.7418299748248	2427.1866798509004	1128.7915	-985.8324981891069	2407.1969759535496	1227.83948	-983.8229170066867	2503.2502641423494	1463.74495	-986.0033327739739	2369.1774747859045	1410.90859	-978.5745574342268	2384.1147623544844	1326.40273	-980.875529812928	2528.4447647126876	1349.34696	-989.5574984979966	2360.439725535765	1466.33022	-980.5511998062007	2425.7766349138465	1713.22306	-979.1238616742634	2398.948251270622	1621.93088	-912.0274505856919	2436.617719751555	1615.30614	-1041.0344474585227	2367.1796098701343	1622.41562	-991.5100852610506	2400.1367186438924	1441.28546	-822.697314406546	2369.2656184258576	1434.33756	-1137.0793384710937	2435.177667845828	1433.85282	-558.0383451147408	2493.960569494169	1417.85649	-567.4219705238252	2379.2977922546174	1410.74701	-1405.1071476695681	2440.0645906909917	1401.37542	-1401.0444690593456	2482.719854662948	1358.71855	-320.63984839925814	2477.235953505134	1408.96964	-308.87992276444913	2464.723463942799	1401.69858	-571.1854554686676	2333.7417412694913	1347.08485	-1636.6242866520295	2323.0865080881217	1397.33595	-1643.253650597284	2413.323824162769	1381.66278	-1397.0213990513917	2520.873400012917	1351.12433	-125.00314020075555	2508.723811561038	1324.14062	-213.50822382491188	2500.8892291239445	1358.39539	-282.21619660225844	2325.281352882442	1322.04009	-1830.2229584140553	2333.1645108568728	1303.29692	-1738.972003661895	2341.096773627827	1343.69169	-1673.839403601005	2468.2083302504016	885.4534	-825.9489390062764	2423.356812466015	491.20043000000004	-825.078667769788	2426.775302488011	484.57568000000003	-901.5553325462081	2468.219480178413	485.7067400000001	-863.7736337136763	2461.3873924675454	885.4534000000001	-1148.772308486818	2429.9291413145393	489.90779000000003	-1157.2990388142575	2437.6649162089666	481.66726000000006	-1081.233228295977	2476.7852148263532	485.22200000000004	-1121.1584964422364	2477.149809661966	451.12881000000004	-859.4915605326131	2392.95193556022	83.21323000000004	-801.0675718605638	2396.4346156323904	77.71954000000005	-861.1857232783238	2484.986522283476	448.54355000000004	-1125.7392152356404	2390.95339886647	83.21323000000007	-1186.272661056329	2396.885570494822	76.75007000000006	-1126.5106485127017	2357.816711582622	1.1310500000000516	-839.6480752492964	2516.020044358786	1.454210000000052	-847.2353897514948	2502.4146780722776	-0.3231599999999526	-773.9506058238578	2530.171944025661	0.48474000000004946	-807.6947528128758	2394.383184069506	3.716320000000051	-832.8730192149584	2608.4951889714603	-0.6463199999999514	-793.2872251143283	2356.9016946950933	0.32316000000007067	-1154.1317028421818	2514.9894876038757	-0.16157999999992992	-1144.394242542613	2502.3799307004074	3.5547400000000744	-1217.935239812125	2529.6616164236	1.7773700000000723	-1183.7607285401796	2393.513386549442	3.231580000000071	-1160.2363627891573	2608.1863687241935	1.4542100000000733	-1197.3075338273084	
84	1.383	2470.9200852848626	911.3060500000001	-986.9377791952385	2532.284779049974	1013.74719	-856.9628611688195	2526.3715165848434	1011.3235100000002	-1121.3371463133303	2483.837233029939	1075.63198	-879.7547892523208	2479.000780765521	1073.69304	-1097.48290541604	2421.6486450213697	852.6528400000001	-930.9330987549434	2419.3063366559936	851.6833700000001	-1039.769525029424	2404.2847631939953	927.4639600000002	-985.7426143476204	2432.7777641995203	1018.1098300000001	-986.5486861370084	2426.7724815540505	1128.7915	-985.6393543512905	2406.7827870536257	1227.83948	-983.6297697486692	2502.836065845499	1463.74495	-985.8101889361577	2368.7632764890545	1410.74701	-978.3814135964105	2383.548728523968	1326.40273	-980.7376495898702	2527.8787343023723	1349.34696	-989.4196276718651	2359.970263624156	1466.33022	-980.206220434718	2425.969769354736	1713.06148	-978.7096667976147	2400.9773640059184	1621.44614	-911.4608531507726	2434.43676806239	1615.46772	-1041.6562991112746	2366.723549061658	1622.5772	-989.7846401728856	2399.5706848133755	1441.28546	-822.5594341834886	2368.8514201290072	1434.33756	-1136.8861946332777	2434.7634823661056	1433.69124	-557.8452072536496	2493.5463711973184	1417.69491	-567.2288266860095	2379.0906931061922	1410.90859	-1405.01057575066	2439.9540634614746	1401.537	-1400.7407979920124	2482.360919980856	1358.39539	-320.5985400951086	2476.877018823043	1408.4849	-308.8386144602997	2464.3645292607075	1401.537	-571.1441471645184	2333.8935674062313	1347.24643	-1636.5690264574723	2323.2383436217888	1397.49753	-1643.1983869825253	2413.061464819787	1381.66278	-1396.7730009957436	2520.5144653308253	1350.47801	-124.96183189660624	2508.420140493705	1323.65588	-213.61875105442894	2500.5302944418527	1358.07223	-282.1748882981089	2325.5850239497754	1322.36325	-1830.112431184538	2333.371610005298	1303.62008	-1739.068575580803	2341.2486091614937	1344.01485	-1673.7841399862464	2468.153066635643	885.4534	-825.7971034726098	2423.453384384923	491.0388500000001	-824.8715686213629	2426.7200388732526	484.57568000000003	-901.4034970125415	2468.1642165636545	485.7067400000001	-863.6217981800097	2461.276865238028	885.4534000000001	-1148.468637419485	2429.7773057808727	489.90779000000003	-1157.3543024290161	2437.5130806753	481.66726000000006	-1081.2884919107355	2476.7852148263532	485.22200000000004	-1121.1584964422364	2477.149809661966	451.12881000000004	-859.4915605326131	2392.95193556022	83.05165000000004	-801.0675718605638	2396.4346156323904	77.71954000000005	-861.1857232783238	2484.8346867498094	448.54355000000004	-1125.794478850399	2390.95339886647	83.21323000000007	-1186.272661056329	2396.885570494822	76.75007000000006	-1126.5106485127017	2357.816711582622	1.1310500000000516	-839.6480752492964	2516.020044358786	1.454210000000052	-847.2353897514948	2502.4146780722776	-0.3231599999999526	-773.9506058238578	2530.171944025661	0.48474000000004946	-807.6947528128758	2394.383184069506	3.554740000000051	-832.8730192149584	2608.4951889714603	-0.6463199999999514	-793.2872251143283	2356.9016946950933	0.32316000000007067	-1154.1317028421818	2514.9894876038757	-0.16157999999992992	-1144.394242542613	2502.3799307004074	3.5547400000000744	-1217.935239812125	2529.6616164236	1.7773700000000723	-1183.7607285401796	2393.513386549442	3.231580000000071	-1160.2363627891573	2608.1863687241935	1.4542100000000733	-1197.3075338273084	
85	1.4	2470.7129861364374	911.3060500000001	-986.8412072763307	2532.077679901549	1013.74719	-856.8662892499116	2526.1644174364183	1011.4850900000001	-1121.2405743944223	2483.478298347847	1075.63198	-879.7134809481714	2478.5865824686707	1073.69304	-1097.289761578224	2421.593381406611	852.6528400000001	-930.7812632212771	2419.099237507569	851.6833700000001	-1039.6729531105157	2404.17423938468	927.4639600000002	-985.4389526772135	2432.5706684712964	1018.1098300000001	-986.4521236150268	2426.3582926541267	1128.7915	-985.4462070932733	2406.3685887567754	1227.83948	-983.4366259108529	2502.3252956297406	1463.74495	-985.8241442467669	2368.2525062732957	1410.74701	-978.3953689070198	2383.1898032388026	1326.40273	-980.6963378655192	2527.464545402448	1349.34696	-989.2264804138476	2359.445538097789	1466.33022	-979.7094055295687	2426.1629131925524	1713.06148	-978.2954685007644	2403.0064801614167	1620.79983	-910.8942651127793	2432.200552758467	1615.79087	-1042.1263152303598	2366.267488253182	1622.73877	-988.0591950847208	2399.2117595282098	1441.28546	-822.5181224591378	2368.4924948438415	1434.33756	-1136.8448829089268	2434.349284069255	1433.52966	-557.6520634158336	2493.187436515227	1417.53333	-567.18751838186	2378.883593957767	1410.90859	-1404.9140038317519	2439.7469643130494	1401.69858	-1400.6442260731044	2482.001994695691	1358.07223	-320.5572283707576	2476.4628205261924	1408.16175	-308.6454706224838	2463.9503403607832	1401.537	-570.9509999065009	2333.8935674062313	1347.56959	-1636.5690264574723	2323.2383436217888	1397.82068	-1643.1983869825253	2412.9096292861204	1381.82436	-1396.8282646105022	2520.210803660418	1349.99328	-125.07235570592198	2508.0612058116135	1323.17115	-213.57744275027952	2500.1713691566874	1357.58749	-282.13357657375815	2325.9439586318667	1322.84799	-1830.1537394886877	2333.578699756797	1303.94324	-1739.1651509199128	2341.4004446951603	1344.17643	-1673.7288763714878	2468.0978030208844	885.4534	-825.6452679389432	2423.3981207701645	491.0388500000001	-824.7197330876963	2426.7200388732526	484.57568000000003	-901.4034970125415	2468.1642165636545	485.7067400000001	-863.6217981800097	2461.069766089603	885.4534000000001	-1148.372065500577	2429.722042166114	490.06937000000005	-1157.2024668953495	2437.4578170605414	481.66726000000006	-1081.136656377069	2476.7299546317963	485.22200000000004	-1121.0066703054958	2477.149809661966	451.12881000000004	-859.4915605326131	2392.95193556022	83.05165000000004	-801.0675718605638	2396.4346156323904	77.71954000000005	-861.1857232783238	2484.779426555252	448.54355000000004	-1125.6426527136584	2390.95339886647	83.21323000000007	-1186.272661056329	2396.885570494822	76.91165000000007	-1126.5106485127017	2357.816711582622	0.9694700000000515	-839.6480752492964	2516.020044358786	1.454210000000052	-847.2353897514948	2502.4146780722776	-0.3231599999999526	-773.9506058238578	2530.171944025661	0.48474000000004946	-807.6947528128758	2394.383184069506	3.554740000000051	-832.8730192149584	2608.4951889714603	-0.6463199999999514	-793.2872251143283	2356.9016946950933	0.32316000000007067	-1154.1317028421818	2514.9894876038757	-0.16157999999992992	-1144.394242542613	2502.324667085649	3.5547400000000744	-1217.7834042784584	2529.6616164236	1.7773700000000723	-1183.7607285401796	2393.513386549442	3.231580000000071	-1160.2363627891573	2608.33820425786	1.6157900000000733	-1197.2522702125498	
